<?xml version="1.0" encoding="UTF-8"?>
<svg width="30px" height="30px" viewBox="0 0 30 30" version="1.1" xmlns="http://www.w3.org/2000/svg" xmlns:xlink="http://www.w3.org/1999/xlink">
    <!-- Generator: sketchtool 48.2 (47327) - http://www.bohemiancoding.com/sketch -->
    <title>5ADB298C-1534-4F05-AD77-3A23B6B09565</title>
    <desc>Created with sketchtool.</desc>
    <defs></defs>
    <g id="web_mobile_eat딜-상세_공유팝업" stroke="none" stroke-width="1" fill="none" fill-rule="evenodd" transform="translate(-24.000000, -313.000000)">
        <g id="가고싶다" transform="translate(16.000000, 119.000000)">
            <g id="Group-7" transform="translate(0.000000, 179.000000)">
                <g id="ic_url_copy" transform="translate(8.000000, 15.000000)">
                    <circle id="Oval-82" fill="#7F7F7F" cx="15" cy="15" r="15"></circle>
                    <g id="Page-1" transform="translate(8.000000, 8.000000)" fill="#FFFFFF">
                        <path d="M3.48571429,5.92857143 C3.71428571,5.7 3.71428571,5.35714286 3.48571429,5.12857143 C3.25714286,4.9 2.91428571,4.9 2.68571429,5.12857143 L1.25714286,6.52857143 C0.457142857,7.32857143 0,8.41428571 0,9.55714286 C0,10.7 0.457142857,11.7857143 1.25714286,12.5857143 C2.08571429,13.4142857 3.2,13.8428571 4.28571429,13.8428571 C5.37142857,13.8428571 6.48571429,13.4142857 7.31428571,12.5857143 L8.71428571,11.1857143 C8.94285714,10.9571429 8.94285714,10.6142857 8.71428571,10.3857143 C8.48571429,10.1571429 8.14285714,10.1571429 7.91428571,10.3857143 L6.51428571,11.7857143 C5.28571429,13.0142857 3.28571429,13.0142857 2.05714286,11.7857143 C1.45714286,11.1857143 1.14285714,10.4142857 1.14285714,9.55714286 C1.14285714,8.7 1.45714286,7.92857143 2.05714286,7.32857143 L3.48571429,5.92857143 Z" id="Fill-1"></path>
                        <path d="M10.3428571,7.92857143 C10.1142857,8.15714286 10.1142857,8.5 10.3428571,8.72857143 C10.4571429,8.84285714 10.6,8.9 10.7428571,8.9 C10.8857143,8.9 11.0285714,8.84285714 11.1428571,8.72857143 L12.5714286,7.3 C13.3714286,6.5 13.8285714,5.41428571 13.8285714,4.27142857 C13.8285714,3.12857143 13.3714286,2.04285714 12.5714286,1.24285714 C10.9142857,-0.414285714 8.17142857,-0.414285714 6.51428571,1.24285714 L5.08571429,2.64285714 C4.85714286,2.87142857 4.85714286,3.21428571 5.08571429,3.44285714 C5.31428571,3.67142857 5.65714286,3.67142857 5.88571429,3.44285714 L7.31428571,2.04285714 C8.54285714,0.814285714 10.5428571,0.814285714 11.7714286,2.04285714 C12.3714286,2.64285714 12.6857143,3.41428571 12.6857143,4.27142857 C12.6857143,5.12857143 12.3428571,5.92857143 11.7714286,6.52857143 L10.3428571,7.92857143 Z" id="Fill-3"></path>
                        <path d="M9.34285714,4.5 C9.11428571,4.27142857 8.77142857,4.27142857 8.54285714,4.5 L4.48571429,8.55714286 C4.25714286,8.78571429 4.25714286,9.12857143 4.48571429,9.35714286 C4.6,9.47142857 4.74285714,9.52857143 4.88571429,9.52857143 C5.02857143,9.52857143 5.17142857,9.47142857 5.28571429,9.35714286 L9.31428571,5.32857143 C9.57142857,5.1 9.57142857,4.72857143 9.34285714,4.5" id="Fill-5"></path>
                    </g>
                </g>
            </g>
        </g>
    </g>
</svg>