<svg xmlns="http://www.w3.org/2000/svg" width="49" height="49" viewBox="0 0 49 49">
    <defs>
        <filter id="a" width="128.9%" height="128.9%" x="-14.4%" y="-14.4%" filterUnits="objectBoundingBox">
            <feOffset dy="1" in="SourceAlpha" result="shadowOffsetOuter1"/>
            <feGaussianBlur in="shadowOffsetOuter1" result="shadowBlurOuter1" stdDeviation="1"/>
            <feColorMatrix in="shadowBlurOuter1" result="shadowMatrixOuter1" values="0 0 0 0 0 0 0 0 0 0 0 0 0 0 0 0 0 0 0.2 0"/>
            <feMerge>
                <feMergeNode in="shadowMatrixOuter1"/>
                <feMergeNode in="SourceGraphic"/>
            </feMerge>
        </filter>
    </defs>
    <g fill="none" fill-rule="evenodd">
        <circle cx="22.5" cy="22.5" r="22.5" fill="#FFF" filter="url(#a)" transform="translate(2 1)"/>
        <path fill="#4F4F4F" stroke="#4F4F4F" stroke-width=".5" d="M29.404 13.997c1.219 0 2.21 1.002 2.21 2.233 0 1.232-.991 2.234-2.21 2.234-1.218 0-2.208-1.002-2.208-2.234 0-1.231.99-2.233 2.208-2.233m0 14.239c1.22 0 2.21 1.002 2.21 2.233 0 1.232-.99 2.234-2.21 2.234-1.218 0-2.208-1.002-2.208-2.234 0-1.231.99-2.233 2.208-2.233m-12.509-2.653c-1.218 0-2.209-1.002-2.209-2.233s.991-2.234 2.21-2.234c1.217 0 2.208 1.002 2.208 2.234 0 1.231-.991 2.233-2.209 2.233m0-5.464c-1.762 0-3.195 1.45-3.195 3.23 0 1.782 1.433 3.231 3.195 3.231 1.016 0 1.92-.483 2.506-1.232l7.014 3.992c-.13.352-.205.731-.205 1.13 0 1.78 1.433 3.23 3.194 3.23 1.763 0 3.196-1.45 3.196-3.23 0-1.782-1.433-3.23-3.196-3.23-1.015 0-1.92.482-2.505 1.231l-7.014-3.992a3.24 3.24 0 0 0 .205-1.13c0-.397-.075-.776-.205-1.129l7.014-3.991a3.176 3.176 0 0 0 2.505 1.232c1.762 0 3.196-1.45 3.196-3.23 0-1.782-1.434-3.231-3.196-3.231-1.761 0-3.194 1.449-3.194 3.23 0 .398.074.777.205 1.13L19.4 21.352a3.175 3.175 0 0 0-2.506-1.233"/>
    </g>
</svg>
