<?xml version="1.0" encoding="UTF-8"?>
<svg width="23px" height="21px" viewBox="0 0 23 21" version="1.1" xmlns="http://www.w3.org/2000/svg" xmlns:xlink="http://www.w3.org/1999/xlink">
    <!-- Generator: Sketch 54.1 (76490) - https://sketchapp.com -->
    <title>ic_wannago</title>
    <desc>Created with Sketch.</desc>
    <g id="[Mobile]-스토리개선" stroke="none" stroke-width="1" fill="none" fill-rule="evenodd">
        <g id="모바일웹_스토리개선" transform="translate(-282.000000, -2472.000000)" stroke="#9B9B9B">
            <g id="ic_wannago" transform="translate(282.000000, 2472.000000)">
                <path d="M5.84372015,20.4116025 L11.4990443,17.4442561 L11.7313379,17.5661051 L17.1563515,20.4117833 C17.415187,20.5478511 17.7292396,20.5251777 17.9670506,20.3534285 C18.2026755,20.1826599 18.3211707,19.8918389 18.2721326,19.6045553 L17.1913971,13.3196434 L17.3801916,13.1360259 L21.7680564,8.86848294 C21.9773321,8.66539918 22.0526909,8.36115703 21.9627886,8.0848305 C21.8714348,7.80632319 21.6307498,7.60375969 21.3410191,7.56177651 L15.0174187,6.64471514 L14.9009537,6.40929854 L12.189049,0.927588781 C12.0593393,0.665041852 11.7921615,0.499366316 11.4985332,0.500002716 C11.2070223,0.499685142 10.940432,0.66527087 10.8105411,0.927866246 L7.98176235,6.64471515 L7.72185995,6.68240998 L1.65819537,7.56185061 C1.36908374,7.6034723 1.12857507,7.80597622 1.03762313,8.084865 C0.947333262,8.36109124 1.02264648,8.66532922 1.23154753,8.8683469 L5.80837214,13.3196848 L5.76368303,13.5792848 L4.72674023,19.6028994 C4.67783001,19.8912925 4.79665734,20.1824534 5.03278362,20.3531267 C5.27039818,20.5249646 5.58449173,20.5475584 5.84372015,20.4116025 Z" id="ic_wannago_active"></path>
            </g>
        </g>
    </g>
</svg>