<svg xmlns="http://www.w3.org/2000/svg" width="45" height="10" viewBox="0 0 45 10">
    <path fill="#7F7F7F" fill-rule="nonzero" d="M8.695 6.932L7.93 9.46H.02l.233-.766c.232-.009.434-.067.605-.174.17-.107.336-.42.496-.94l1.729-5.653c.046-.155.068-.271.068-.349a.517.517 0 0 0-.256-.472.979.979 0 0 0-.516-.157L2.61.191h6.795l.062 2.277h-.773c-.155-.47-.357-.84-.608-1.111-.25-.271-.754-.407-1.51-.407h-.883L4.662 4.28h.458c.51 0 .87-.078 1.08-.233.21-.155.415-.515.615-1.08h.807L6.501 6.624h-.807c.105-.355.158-.62.158-.793 0-.533-.376-.8-1.128-.8h-.287l-.732 2.393c-.096.31-.143.52-.143.629 0 .437.405.656 1.216.656.839 0 1.503-.147 1.993-.44.49-.295.876-.74 1.159-1.337h.765zm4.956 1.442c-.738.87-1.54 1.306-2.406 1.306-.456 0-.821-.15-1.097-.451-.276-.301-.414-.732-.414-1.292 0-1.026.4-1.998 1.197-2.916.797-.918 1.65-1.377 2.556-1.377.292 0 .546.052.763.157.216.105.395.264.536.478l.82-2.686c.041-.137.062-.244.062-.322 0-.246-.271-.369-.814-.369l.212-.71c.72 0 1.21-.01 1.47-.031.26-.02.577-.074.95-.161h.636l-2.331 7.65c-.096.305-.144.505-.144.601 0 .191.087.287.26.287.105 0 .236-.07.393-.208.158-.14.3-.314.428-.523h.758c-.35.601-.769 1.063-1.254 1.384-.485.321-.979.482-1.48.482-.356 0-.63-.1-.824-.3-.193-.201-.29-.463-.29-.787 0-.05.004-.12.013-.212zm-1.866-.772c0 .282.05.495.15.639.1.143.251.215.452.215.287 0 .589-.15.905-.451.317-.3.595-.806.834-1.514.24-.709.36-1.189.36-1.44a.674.674 0 0 0-.216-.488.696.696 0 0 0-.51-.215c-.232 0-.481.133-.748.4-.266.266-.538.725-.813 1.377-.276.652-.414 1.144-.414 1.477zm10.746-6.536c0 .292-.105.543-.314.752-.21.21-.46.315-.752.315s-.542-.105-.752-.315c-.21-.21-.315-.46-.315-.752 0-.296.105-.548.315-.755.21-.207.46-.311.752-.311s.542.104.752.311c.21.207.314.46.314.755zm-1.148 6.74h.69c-.583 1.245-1.399 1.867-2.447 1.867-.424 0-.743-.089-.957-.267-.214-.177-.321-.442-.321-.793 0-.205.089-.565.266-1.08l.82-2.358c.064-.182.096-.301.096-.356 0-.054-.012-.094-.037-.12-.025-.024-.065-.037-.12-.037-.232 0-.506.296-.82.889h-.657c.588-1.272 1.418-1.907 2.489-1.907.378 0 .672.092.882.276.21.185.314.439.314.763 0 .237-.093.613-.28 1.128l-.793 2.16c-.114.305-.171.496-.171.574 0 .05.015.089.044.116.03.027.072.041.127.041.118 0 .27-.102.454-.307.185-.206.325-.402.42-.588zm4.99-.28h.759c-.196.534-.525 1.025-.988 1.474-.463.448-1.004.673-1.623.673-.392 0-.72-.104-.981-.311-.262-.208-.394-.546-.394-1.015 0-.301.098-.752.294-1.354l.725-2.372h-1.148l.232-.759h1.148l.63-2.085h2.036l-.635 2.085h1.244l-.233.76h-1.244l-.847 2.781c-.16.524-.24.841-.24.95 0 .1.022.176.065.226.044.05.109.075.195.075.328 0 .663-.376 1.005-1.128zm1.531-.423c0-.479.14-.993.42-1.542.281-.55.72-1.006 1.32-1.37.6-.365 1.311-.547 2.136-.547 1.026 0 1.779.243 2.26.731.48.488.72 1.078.72 1.77 0 .953-.368 1.779-1.107 2.479-.738.7-1.681 1.049-2.83 1.049-.834 0-1.529-.21-2.085-.632-.556-.422-.834-1.068-.834-1.938zm2.003.69c0 .406.077.71.23.913.152.202.38.304.686.304.565 0 1.027-.426 1.385-1.279.357-.852.536-1.572.536-2.16 0-.446-.085-.77-.256-.97-.171-.2-.368-.301-.592-.301-.601 0-1.083.446-1.445 1.34-.363.893-.544 1.61-.544 2.153zm5.852 1.668l1.203-3.944c.082-.265.123-.454.123-.568 0-.141-.07-.212-.212-.212-.324 0-.658.312-1.005.937h-.636c.374-.68.814-1.187 1.32-1.525.506-.337.998-.505 1.476-.505.283 0 .5.088.653.266.153.178.23.406.23.684 0 .3-.128.916-.384 1.845 1.026-1.863 1.924-2.795 2.694-2.795.228 0 .419.074.574.222.155.148.232.354.232.618 0 .32-.09.605-.273.858-.182.253-.408.38-.677.38a.593.593 0 0 1-.533-.294c-.096-.142-.19-.212-.28-.212-.315 0-.743.497-1.285 1.49-.543.994-.928 1.912-1.156 2.755H35.76zm8.907-.855c0 .292-.106.543-.318.752-.212.21-.464.315-.755.315-.296 0-.55-.105-.759-.315-.21-.21-.314-.46-.314-.752 0-.296.104-.549.314-.758.21-.21.463-.315.759-.315s.549.105.759.315c.21.21.314.462.314.758z"/>
</svg>
