<?xml version="1.0" encoding="UTF-8"?>
<svg width="23px" height="21px" viewBox="0 0 23 21" version="1.1" xmlns="http://www.w3.org/2000/svg" xmlns:xlink="http://www.w3.org/1999/xlink">
    <!-- Generator: Sketch 54.1 (76490) - https://sketchapp.com -->
    <title>ic_wannago_active</title>
    <desc>Created with Sketch.</desc>
    <g id="[Mobile]-스토리개선" stroke="none" stroke-width="1" fill="none" fill-rule="evenodd">
        <g id="모바일웹_스토리개선" transform="translate(-282.000000, -2397.000000)" fill="#FF7100">
            <g id="ic_wannago_active" transform="translate(282.000000, 2397.000000)">
                <path d="M11.4990779,18.0088865 L6.07603283,20.8543562 C5.6486007,21.0785288 5.13107259,21.0412542 4.73978362,20.7582822 C4.34901847,20.4758352 4.15311207,19.9949403 4.23377941,19.5192954 L5.2709309,13.4944595 L0.882942017,9.22677988 C0.537748669,8.89130844 0.412557152,8.3878388 0.562367921,7.92951867 C0.712178691,7.47014856 1.10922961,7.13572712 1.58694787,7.06695285 L7.65009354,6.1875872 L10.3624018,0.706120502 C10.5766417,0.273000109 11.0171692,-0.000521982175 11.4990779,3.01224075e-06 C11.9815105,-0.00104697659 12.4230856,0.272475114 12.6373255,0.706120502 L15.34911,6.1875872 L21.4127795,7.06695285 C21.8910215,7.13625211 22.2875486,7.47067355 22.4378832,7.92899368 C22.5871702,8.3878388 22.4625025,8.89130844 22.1162615,9.22730487 L17.7287964,13.4944595 L18.7649003,19.5198204 C18.8460914,19.9954653 18.650185,20.4758352 18.2604675,20.7582822 C17.8686547,21.0412542 17.3511266,21.0790538 16.9236945,20.8543562 L11.4990779,18.0088865 Z"></path>
            </g>
        </g>
    </g>
</svg>