<?xml version="1.0" encoding="UTF-8"?>
<svg width="100px" height="33px" viewBox="0 0 100 33" version="1.1" xmlns="http://www.w3.org/2000/svg" xmlns:xlink="http://www.w3.org/1999/xlink">
    <!-- Generator: Sketch 48.2 (47327) - http://www.bohemiancoding.com/sketch -->
    <title>PC_snow_top_logo</title>
    <desc>Created with Sketch.</desc>
    <defs>
        <polygon id="path-1" points="0 0.240636219 99.8307958 0.240636219 99.8307958 31.0168497 0 31.0168497"></polygon>
        <polyline id="path-3" points="0 0.240636219 99.8307958 0.240636219 99.8307958 31.0168497 0 31.0168497"></polyline>
    </defs>
    <g id="Symbols" stroke="none" stroke-width="1" fill="none" fill-rule="evenodd">
        <g id="PC_snow_top_logo">
            <g id="Page-1" transform="translate(0.000000, 1.000000)">
                <g id="Group-3">
                    <mask id="mask-2" fill="white">
                        <use xlink:href="#path-1"></use>
                    </mask>
                    <g id="Clip-2"></g>
                    <path d="M2.18276817,0.544703599 C2.20179931,0.373940503 2.37515571,0.241011147 2.52948097,0.241011147 L2.83778547,0.241011147 C2.93397924,0.241011147 3.10768166,0.317019471 3.16512111,0.43120238 L7.63536332,8.62987603 L7.67377163,8.62987603 L12.1433218,0.43120238 C12.2011073,0.317019471 12.3744637,0.241011147 12.4706574,0.241011147 L12.7789619,0.241011147 C12.9332872,0.241011147 13.1066436,0.373940503 13.1260208,0.544703599 L15.3031834,13.2980823 C15.3419377,13.5448538 15.1682353,13.7156169 14.9367474,13.7156169 L12.663737,13.7156169 C12.4903806,13.7156169 12.3170242,13.5636002 12.297301,13.4122652 L11.430519,7.54803558 L11.3921107,7.54803558 L8.15508651,13.6968704 C8.09730104,13.8107125 7.92394464,13.9054672 7.82775087,13.9054672 L7.48103806,13.9054672 C7.36512111,13.9054672 7.21114187,13.8107125 7.15370242,13.6968704 L3.89764706,7.54803558 L3.85889273,7.54803558 L3.01148789,13.4122652 C2.99176471,13.5636002 2.83778547,13.7156169 2.6450519,13.7156169 L0.371695502,13.7156169 C0.140207612,13.7156169 -0.0331487889,13.5448538 0.00525951557,13.2980823 L2.18276817,0.544703599 Z" id="Fill-1" fill="#E9E9E9" mask="url(#mask-2)"></path>
                </g>
                <path d="M30.4881661,9.16097994 L29.0241522,6.0296415 L29.0044291,6.0296415 L27.5597924,9.16097994 L30.4881661,9.16097994 Z M22.569481,13.222483 L28.5999308,0.450016996 C28.6577163,0.336174932 28.7930104,0.241079316 28.9279585,0.241079316 L29.120346,0.241079316 C29.2549481,0.241079316 29.3898962,0.336174932 29.4476817,0.450016996 L35.4781315,13.222483 C35.5937024,13.4689136 35.4393772,13.715685 35.1507958,13.715685 L33.0120415,13.715685 C32.6656747,13.715685 32.5110035,13.601843 32.3376471,13.2412295 L31.6438754,11.7418545 L26.403391,11.7418545 L25.7103114,13.2606576 C25.6137716,13.4880009 25.4020069,13.715685 25.0165398,13.715685 L22.8975087,13.715685 C22.6082353,13.715685 22.4542561,13.4689136 22.569481,13.222483 L22.569481,13.222483 Z" id="Fill-4" fill="#E9E9E9"></path>
                <path d="M25.7579585,18.0926397 C25.7579585,17.9031302 25.9119377,17.7323671 26.1237024,17.7323671 L28.416436,17.7323671 C28.6091696,17.7323671 28.782526,17.9031302 28.782526,18.0926397 L28.782526,28.2273101 L33.3676471,28.2273101 C33.5797578,28.2273101 33.734083,28.3980732 33.734083,28.5875828 L33.734083,30.6565089 C33.734083,30.8460184 33.5797578,31.0167815 33.3676471,31.0167815 L26.1237024,31.0167815 C25.9119377,31.0167815 25.7579585,30.8460184 25.7579585,30.6565089 L25.7579585,18.0926397 Z" id="Fill-6" fill="#E9E9E9"></path>
                <path d="M44.4700346,0.582707761 C44.4700346,0.393198218 44.643391,0.24118157 44.8364706,0.24118157 L45.3177855,0.24118157 L53.0049827,7.52877787 L53.0243599,7.52877787 L53.0243599,0.791645441 C53.0243599,0.601795053 53.1786851,0.431031957 53.3904498,0.431031957 L55.7022145,0.431031957 C55.8952941,0.431031957 56.0686505,0.601795053 56.0686505,0.791645441 L56.0686505,13.5637706 C56.0686505,13.753621 55.8952941,13.9052968 55.7022145,13.9052968 L55.39391,13.9052968 C55.3364706,13.9052968 55.1821453,13.8487166 55.144083,13.810542 L47.5337024,6.27617432 L47.5139792,6.27617432 L47.5139792,13.3551738 C47.5139792,13.5450242 47.360346,13.7157873 47.1482353,13.7157873 L44.8555017,13.7157873 C44.6631142,13.7157873 44.4894118,13.5450242 44.4894118,13.3551738 L44.4700346,0.582707761 Z" id="Fill-8" fill="#E9E9E9"></path>
                <path d="M51.7435294,26.4620764 L50.2795156,23.330738 L50.2597924,23.330738 L48.8151557,26.4620764 L51.7435294,26.4620764 Z M43.8248443,30.5235795 L49.8552941,17.7511135 C49.9134256,17.6372714 50.0483737,17.5421758 50.1833218,17.5421758 L50.3757093,17.5421758 C50.5103114,17.5421758 50.6452595,17.6372714 50.703045,17.7511135 L56.7334948,30.5235795 C56.8490657,30.7700101 56.6954325,31.0167815 56.4061592,31.0167815 L54.2674048,31.0167815 C53.920346,31.0167815 53.7663668,30.9029395 53.5930104,30.542326 L52.8992388,29.042951 L47.6587543,29.042951 L46.9656747,30.5617541 C46.8691349,30.7890974 46.6573702,31.0167815 46.2719031,31.0167815 L44.152872,31.0167815 C43.8635986,31.0167815 43.7096194,30.7700101 43.8248443,30.5235795 L43.8248443,30.5235795 Z" id="Fill-10" fill="#E9E9E9"></path>
                <path d="M72.4395502,0.259825764 C74.0578893,0.259825764 75.8305536,0.923790854 77.1405882,2.04380589 C77.3139446,2.1763944 77.3333218,2.40407853 77.1786505,2.55609517 L75.6568512,4.14988407 C75.502526,4.28349511 75.2911073,4.28349511 75.136782,4.1693122 C74.4042561,3.50534711 73.5568512,3.25823485 72.6129066,3.25823485 C70.5129066,3.25823485 68.8177509,5.00404039 68.8177509,7.09171296 C68.8177509,9.16063909 70.5322837,10.86827 72.6319377,10.86827 C73.1907612,10.86827 73.7689619,10.7929434 74.3468166,10.5645776 L74.3468166,9.46433154 L73.1333218,9.46433154 C72.9212111,9.46433154 72.7668858,9.31265574 72.7668858,9.12246451 L72.7668858,7.24372961 C72.7668858,7.03513278 72.9212111,6.88345697 73.1333218,6.88345697 L77.0052941,6.88345697 C77.1983737,6.88345697 77.3523529,7.05387922 77.3523529,7.24372961 L77.3717301,12.3492394 C77.3717301,12.4439942 77.2945675,12.5953291 77.2174048,12.6522502 C77.2174048,12.6522502 75.2329758,13.8861073 72.4395502,13.8861073 C68.6056401,13.8861073 65.5229412,10.8876982 65.5229412,7.09171296 C65.5229412,3.29640943 68.6056401,0.259825764 72.4395502,0.259825764" id="Fill-12" fill="#E9E9E9"></path>
                <path d="M70.0692042,20.5213954 L67.3138408,20.5213954 C67.1024221,20.5213954 66.9480969,20.3506323 66.9480969,20.1611227 L66.9480969,18.0921966 C66.9480969,17.9026871 67.1024221,17.7315831 67.3138408,17.7315831 L75.8685121,17.7315831 C76.0799308,17.7315831 76.2346021,17.9026871 76.2346021,18.0921966 L76.2346021,20.1611227 C76.2346021,20.3506323 76.0799308,20.5213954 75.8685121,20.5213954 L73.1131488,20.5213954 L73.1131488,30.6560658 C73.1131488,30.8455753 72.9397924,31.0163384 72.7474048,31.0163384 L70.4349481,31.0163384 C70.2425606,31.0163384 70.0692042,30.8455753 70.0692042,30.6560658 L70.0692042,20.5213954 Z" id="Fill-14" fill="#E9E9E9"></path>
                <g id="Group-18">
                    <mask id="mask-4" fill="white">
                        <use xlink:href="#path-3"></use>
                    </mask>
                    <g id="Clip-17"></g>
                    <path d="M92.8944983,10.8683723 C95.0142215,10.8683723 96.7481315,9.1604005 96.7481315,7.09181522 C96.7481315,5.00414264 95.0142215,3.27708355 92.8944983,3.27708355 C90.7948443,3.27708355 89.0605882,5.00414264 89.0605882,7.09181522 C89.0605882,9.1604005 90.7948443,10.8683723 92.8944983,10.8683723 M92.8944983,0.240499881 C96.7481315,0.240499881 99.8308304,3.29617084 99.8308304,7.09181522 C99.8308304,10.8874596 96.7481315,13.904956 92.8944983,13.904956 C89.0415571,13.904956 85.9778893,10.8874596 85.9778893,7.09181522 C85.9778893,3.29617084 89.0415571,0.240499881 92.8944983,0.240499881" id="Fill-16" fill="#E9E9E9" mask="url(#mask-4)"></path>
                </g>
                <path d="M88.9161246,18.0921966 C88.9161246,17.9026871 89.0701038,17.731924 89.2818685,17.731924 L97.2583391,17.731924 C97.4704498,17.731924 97.624083,17.9026871 97.624083,18.0921966 L97.624083,20.1611227 C97.624083,20.3506323 97.4704498,20.5213954 97.2583391,20.5213954 L91.9216609,20.5213954 L91.9216609,22.8745858 L96.3143945,22.8745858 C96.506782,22.8745858 96.6804844,23.0453489 96.6804844,23.2355401 L96.6804844,25.3037846 C96.6804844,25.5127223 96.506782,25.6647389 96.3143945,25.6647389 L91.9216609,25.6647389 L91.9216609,28.226867 L97.2583391,28.226867 C97.4704498,28.226867 97.624083,28.3976301 97.624083,28.5871397 L97.624083,30.6560658 C97.624083,30.8455753 97.4704498,31.0163384 97.2583391,31.0163384 L89.2818685,31.0163384 C89.0701038,31.0163384 88.9161246,30.8455753 88.9161246,30.6560658 L88.9161246,18.0921966 Z" id="Fill-19" fill="#E9E9E9"></path>
                <path d="M8.64532872,24.9541122 C8.64532872,25.7704348 9.30034602,26.4534872 10.167474,26.4534872 C10.9764706,26.4534872 11.5930796,25.7704348 11.5930796,24.9541122 L11.5930796,23.1513856 L8.64532872,23.1513856 L8.64532872,24.9541122 Z M14.0591696,20.1908103 C14.2515571,20.1908103 14.4252595,20.3424861 14.4252595,20.5514238 L14.4252595,25.1248753 C14.4252595,27.4593193 12.4982699,29.3762288 10.167474,29.3762288 C7.77820069,29.3762288 5.83252595,27.4593193 5.83252595,25.1443034 L5.83252595,23.1513856 L1.30449827,23.1513856 C1.11211073,23.1513856 0.938754325,22.9806225 0.938754325,22.791113 L0.938754325,20.5514238 C0.938754325,20.3424861 1.11211073,20.1908103 1.30449827,20.1908103 L14.0591696,20.1908103 Z" id="Fill-21" fill="#E9E9E9"></path>
            </g>
        </g>
    </g>
</svg>